/* XPM */
static char * acbfv_xpm[] = {
"32 32 408 2",
"  	c None",
". 	c #2F1900",
"+ 	c #5E4620",
"@ 	c #7A623B",
"# 	c #8E7754",
"$ 	c #8F7754",
"% 	c #7B623B",
"& 	c #5E4720",
"* 	c #6A4D29",
"= 	c #A88969",
"- 	c #F8D5B2",
"; 	c #FFE4B9",
"> 	c #FCE7B1",
", 	c #FAE8AA",
"' 	c #F8D5B1",
") 	c #563B19",
"! 	c #BD956E",
"~ 	c #FFD2A2",
"{ 	c #F6CF8C",
"] 	c #F7DC85",
"^ 	c #F6E888",
"/ 	c #F7EF88",
"( 	c #F7F287",
"_ 	c #6A4B26",
": 	c #FCC692",
"< 	c #F5BE7F",
"[ 	c #F5C882",
"} 	c #F7D789",
"| 	c #F6E68B",
"1 	c #F7F089",
"2 	c #F7F787",
"3 	c #F7FA86",
"4 	c #876035",
"5 	c #FDC084",
"6 	c #F3B672",
"7 	c #F5C080",
"8 	c #F6CE88",
"9 	c #F6DD8D",
"0 	c #F7EC8D",
"a 	c #F7F689",
"b 	c #F7FC86",
"c 	c #F8FE85",
"d 	c #F3B673",
"e 	c #6A4821",
"f 	c #FCBA78",
"g 	c #F3B06A",
"h 	c #F4B879",
"i 	c #F5C384",
"j 	c #F7D08D",
"k 	c #F7E090",
"l 	c #F7EE8F",
"m 	c #F8F88A",
"n 	c #F7FE84",
"o 	c #F8F88B",
"p 	c #F7EE8E",
"q 	c #563614",
"r 	c #F9B26D",
"s 	c #F2AC61",
"t 	c #F4B36F",
"u 	c #F5BA7C",
"v 	c #F5C488",
"w 	c #F6D192",
"x 	c #F8E095",
"y 	c #F8ED92",
"z 	c #F8F68D",
"A 	c #F7FB89",
"B 	c #F7FD86",
"C 	c #F6D191",
"D 	c #B97E45",
"E 	c #F2A15A",
"F 	c #F2AD64",
"G 	c #F3B371",
"H 	c #F5BA7F",
"I 	c #F6C48B",
"J 	c #F6CF95",
"K 	c #F8DD99",
"L 	c #F7EA98",
"M 	c #F8F394",
"N 	c #F8F990",
"O 	c #F7FB8C",
"P 	c #F6D095",
"Q 	c #673C1A",
"R 	c #FAA25C",
"S 	c #F2A058",
"T 	c #F2AE66",
"U 	c #F4B373",
"V 	c #F5BB80",
"W 	c #F5C38D",
"X 	c #F7CD98",
"Y 	c #F8D99F",
"Z 	c #F8E4A1",
"` 	c #F8EE9E",
" .	c #F9F49C",
"..	c #F8F89B",
"+.	c #A16032",
"@.	c #F18750",
"#.	c #F2A259",
"$.	c #F2AE65",
"%.	c #F4B473",
"&.	c #F4BB80",
"*.	c #F6C28E",
"=.	c #F7CB99",
"-.	c #F7D4A2",
";.	c #F8DEA9",
">.	c #F9E8AB",
",.	c #F8EEAC",
"'.	c #F9F3AE",
").	c #F7D4A3",
"!.	c #312406",
"~.	c #ED784A",
"{.	c #F17F4D",
"].	c #F2A059",
"^.	c #FCBA77",
"/.	c #DEA874",
"(.	c #F6C18D",
"_.	c #F6C89A",
":.	c #F7CFA4",
"<.	c #F8D7AD",
"[.	c #FFE7BA",
"}.	c #F7E5B7",
"|.	c #ECDEB3",
"1.	c #FFF2C3",
"2.	c #F9E7B9",
"3.	c #FFEBBD",
"4.	c #D9BC97",
"5.	c #CFAE8A",
"6.	c #FFCFA0",
"7.	c #F5C18C",
"8.	c #F4B97F",
"9.	c #F7B674",
"0.	c #FFB76B",
"a.	c #E79954",
"b.	c #E87B4B",
"c.	c #522D11",
"d.	c #FA714A",
"e.	c #F17E4D",
"f.	c #F29D57",
"g.	c #FCB468",
"h.	c #4A3622",
"i.	c #000000",
"j.	c #F3BD88",
"k.	c #F7C697",
"l.	c #F8CDA4",
"m.	c #D5B695",
"n.	c #312B24",
"o.	c #827564",
"p.	c #C4AE94",
"q.	c #221B15",
"r.	c #FEC68F",
"s.	c #CB9A68",
"t.	c #563F28",
"u.	c #FF744C",
"v.	c #6F3418",
"w.	c #F46445",
"x.	c #F17A4B",
"y.	c #F29856",
"z.	c #8E6538",
"A.	c #17110B",
"B.	c #080503",
"C.	c #BF946A",
"D.	c #F6C393",
"E.	c #C49F7E",
"F.	c #5D4F43",
"G.	c #B49C86",
"H.	c #0F0D0C",
"I.	c #EACCB1",
"J.	c #7E6E5E",
"K.	c #383028",
"L.	c #B4967B",
"M.	c #D2AB86",
"N.	c #F7BF88",
"O.	c #1F1710",
"P.	c #2E2215",
"Q.	c #906739",
"R.	c #B97442",
"S.	c #B35A37",
"T.	c #F86646",
"U.	c #84351D",
"V.	c #F25940",
"W.	c #F17349",
"X.	c #ED8E52",
"Y.	c #EEAC68",
"Z.	c #4F3A25",
"`.	c #B48A60",
" +	c #EEBB8A",
".+	c #BE9C7D",
"++	c #FDD2AE",
"@+	c #FCD5B5",
"#+	c #D8B89E",
"$+	c #FCD6B8",
"%+	c #5C4D42",
"&+	c #957B66",
"*+	c #FFD3AA",
"=+	c #5D4B3A",
"-+	c #4F3D2D",
";+	c #FFC98C",
">+	c #FFBD72",
",+	c #F2A95E",
"'+	c #F29053",
")+	c #F17449",
"!+	c #84311C",
"~+	c #F24F3C",
"{+	c #F56D47",
"]+	c #5A311D",
"^+	c #1D140B",
"/+	c #1E160D",
"(+	c #7E5F41",
"_+	c #664F38",
":+	c #6C5641",
"<+	c #FACA9D",
"[+	c #F7CAA2",
"}+	c #F8CDA8",
"|+	c #F8CEAB",
"1+	c #FFD5B0",
"2+	c #312821",
"3+	c #6B5847",
"4+	c #15110D",
"5+	c #4E3E2E",
"6+	c #FBC38C",
"7+	c #F5B97D",
"8+	c #050402",
"9+	c #FFC071",
"0+	c #E39A55",
"a+	c #A25C36",
"b+	c #B55035",
"c+	c #F34F3D",
"d+	c #6F2C15",
"e+	c #F44339",
"f+	c #D9593D",
"g+	c #472C19",
"h+	c #9D6F3E",
"i+	c #2B1F12",
"j+	c #CE9964",
"k+	c #D3A476",
"l+	c #F6C292",
"m+	c #F6C599",
"n+	c #FFCFA3",
"o+	c #F9CBA1",
"p+	c #FFD5A9",
"q+	c #31271E",
"r+	c #060504",
"s+	c #1B150F",
"t+	c #FFC286",
"u+	c #C4925F",
"v+	c #020101",
"w+	c #6C2A1D",
"x+	c #F74439",
"y+	c #6F2C16",
"z+	c #522A0F",
"A+	c #FC3435",
"B+	c #4F1B14",
"C+	c #95482D",
"D+	c #F89054",
"E+	c #FBAC5F",
"F+	c #1A120A",
"G+	c #DEA266",
"H+	c #A47D57",
"I+	c #FFCA91",
"J+	c #C59B73",
"K+	c #1A1510",
"L+	c #E0B388",
"M+	c #D8AB83",
"N+	c #FFDBA3",
"O+	c #AE8762",
"P+	c #1C150E",
"Q+	c #FEBE7E",
"R+	c #906943",
"S+	c #2B1E11",
"T+	c #B07842",
"U+	c #F58F54",
"V+	c #FE794D",
"W+	c #F65A41",
"X+	c #F83234",
"Y+	c #312C09",
"Z+	c #EF282E",
"`+	c #0D0604",
" @	c #FA6847",
".@	c #F49956",
"+@	c #A77541",
"@@	c #FFB86D",
"#@	c #523C26",
"$@	c #070604",
"%@	c #3F3022",
"&@	c #CA9C70",
"*@	c #F8C18C",
"=@	c #9A7757",
"-@	c #15100C",
";@	c #0D0A07",
">@	c #D8A26B",
",@	c #F6B472",
"'@	c #61462A",
")@	c #7A552F",
"!@	c #F29756",
"~@	c #F06544",
"{@	c #F04D3B",
"]@	c #EB252D",
"^@	c #A1271E",
"/@	c #F03B35",
"(@	c #F0583F",
"_@	c #F17047",
":@	c #F2AB60",
"<@	c #FAB46B",
"[@	c #F5B370",
"}@	c #FFC07D",
"|@	c #FABC7D",
"1@	c #F4B97E",
"2@	c #F4BA80",
"3@	c #F8BD82",
"4@	c #F3B97E",
"5@	c #DEA76F",
"6@	c #FEBD7B",
"7@	c #F3B26F",
"8@	c #F3AF68",
"9@	c #DB9B57",
"0@	c #F09C57",
"a@	c #F17048",
"b@	c #A0271E",
"c@	c #672A13",
"d@	c #F72A30",
"e@	c #F0493A",
"f@	c #F06043",
"g@	c #F1764A",
"h@	c #F18C52",
"i@	c #F29F58",
"j@	c #F2AB5F",
"k@	c #F3AE66",
"l@	c #F3B16C",
"m@	c #F4B371",
"n@	c #F4B575",
"o@	c #B72522",
"p@	c #EF3633",
"q@	c #F04F3D",
"r@	c #F1784B",
"s@	c #F18B51",
"t@	c #F29C57",
"u@	c #F2A85C",
"v@	c #F3AC62",
"w@	c #F3AE65",
"x@	c #F3AF69",
"y@	c #F3AD66",
"z@	c #EF3733",
"A@	c #562A10",
"B@	c #F5252F",
"C@	c #F03E36",
"D@	c #F0523D",
"E@	c #F18650",
"F@	c #F29454",
"G@	c #F2A65C",
"H@	c #F2AA5E",
"I@	c #F2A75C",
"J@	c #F1864F",
"K@	c #682913",
"L@	c #F72730",
"M@	c #F03F37",
"N@	c #F0513C",
"O@	c #F06142",
"P@	c #F17D4C",
"Q@	c #F28F53",
"R@	c #F29555",
"S@	c #F03F36",
"T@	c #842918",
"U@	c #F72831",
"V@	c #F03F38",
"W@	c #F04B3B",
"X@	c #F05A40",
"Y@	c #F1774B",
"Z@	c #F17C4C",
"`@	c #F03D37",
" #	c #672913",
".#	c #F52832",
"+#	c #F03C3B",
"@#	c #F04339",
"##	c #F04E3C",
"$#	c #F0573F",
"%#	c #F05F41",
"&#	c #F16344",
"*#	c #F06644",
"=#	c #F04F3C",
"-#	c #F04338",
";#	c #F03938",
">#	c #F62731",
",#	c #552A10",
"'#	c #BB2622",
")#	c #F8333A",
"!#	c #F04341",
"~#	c #F14940",
"{#	c #F04538",
"]#	c #F04A3A",
"^#	c #F04638",
"/#	c #F0453C",
"(#	c #F03F3E",
"_#	c #F83038",
":#	c #BC2623",
"<#	c #302309",
"[#	c #572711",
"}#	c #A0261D",
"|#	c #EC2B33",
"1#	c #F93D45",
"2#	c #F54044",
"3#	c #F34546",
"4#	c #F34446",
"5#	c #F43D41",
"6#	c #F93B42",
"7#	c #582811",
"8#	c #47270D",
"9#	c #6D2815",
"0#	c #842818",
"a#	c #47270E",
"                                                                ",
"                                                                ",
"                        . + @ # $ % & .                         ",
"                    * = - ; > , , > ; ' = *                     ",
"                ) ! ~ { ] ^ / ( ( / ^ ] { ~ ! )                 ",
"              _ : < [ } | 1 2 3 3 2 1 | } [ < : _               ",
"            4 5 6 7 8 9 0 a b c c b a 0 9 8 7 d 5 4             ",
"          e f g h i j k l m b n n b o p k j i h g f e           ",
"        q r s t u v w x y z A B B A z y x C v u t s r q         ",
"        D E F G H I J K L M N O O N M L K P I H G F E D         ",
"      Q R S T U V W X Y Z `  ..... .` Z Y X W V U T S R Q       ",
"      +.@.#.$.%.&.*.=.-.;.>.,.'.'.,.>.;.).=.*.&.U $.#.@.+.      ",
"    !.~.{.].$.^./.(._.:.<.[.}.|.1.2.3.4.5.6.7.8.9.0.a.b.~.!.    ",
"    c.d.e.f.g.h.i.j.k.l.m.n.i.i.o.p.i.i.i.q.r.s.t.i.i.i.u.c.    ",
"    v.w.x.y.z.A.B.C.D.E.i.F.G.H.I.J.K.L.M.i.N.O.P.Q.R.S.T.v.    ",
"    U.V.W.X.i.Y.Z.`. +i..+++@+#+$+%+&+*+=+-+;+i.>+,+'+)+V.U.    ",
"    !+~+{+]+^+/+i.(+_+:+<+[+}+|+1+2+3+4+5+6+7+8+9+0+a+b+c+!+    ",
"    d+e+f+i.g+h+i+j+i.k+l+m+n+o+p+i.q+r+s+t+u+i.v+i.i.w+x+y+    ",
"    z+A+B+C+D+E+F+G+i.H+I+J+K+L+M+i.N+O+P+Q+R+S+T+U+V+W+X+z+    ",
"    Y+Z+`+ @{..@+@@@#@i.$@%@&@*@=@i.-@;@>@,@'@)@!@{.~@{@]@Y+    ",
"      ^@/@(@_@@.f.:@<@[@}@|@1@2@3@4@5@6@7@8@9@0@@.a@(@/@b@      ",
"      c@d@e@f@g@h@i@j@k@l@m@%.n@n@%.m@l@k@j@i@h@g@f@e@d@c@      ",
"        o@p@q@~@r@s@t@u@v@w@x@g g x@y@v@u@t@s@r@~@q@z@o@        ",
"        A@B@C@D@~@g@E@F@i@G@H@j@j@H@I@i@F@J@g@~@D@C@B@A@        ",
"          K@L@M@N@O@a@P@@.Q@R@y.y.R@Q@@.P@a@O@N@S@L@K@          ",
"            T@U@V@W@X@~@a@Y@Z@{.{.Z@Y@a@~@X@W@`@U@T@            ",
"               #.#+#@###$#%#&#*#*#&#%#$#=#-#;#># #              ",
"                ,#'#)#!#~#{#]#{@{@]#^#/#(#_#:#,#                ",
"                  <#[#}#|#1#2#3#4#5#6#|#b@7#<#                  ",
"                          8#9#0#0#9#a#                          ",
"                                                                ",
"                                                                "};
